<svg width="0" height="0" class="hidden">
  <symbol xmlns="http://www.w3.org/2000/svg" viewBox="0 0 24 24" id="chevron-down">
    <path d="M7.41,8.58L12,13.17L16.59,8.58L18,10L12,16L6,10L7.41,8.58Z"></path>
  </symbol>
  <symbol xmlns="http://www.w3.org/2000/svg" viewBox="0 0 24 24" id="translate">
    <path d="M12.87,15.07L10.33,12.56L10.36,12.53C12.1,10.59 13.34,8.36 14.07,6H17V4H10V2H8V4H1V6H12.17C11.5,7.92 10.44,9.75 9,11.35C8.07,10.32 7.3,9.19 6.69,8H4.69C5.42,9.63 6.42,11.17 7.67,12.56L2.58,17.58L4,19L9,14L12.11,17.11L12.87,15.07M18.5,10H16.5L12,22H14L15.12,19H19.87L21,22H23L18.5,10M15.88,17L17.5,12.67L19.12,17H15.88Z"></path>
  </symbol>
  <symbol xmlns="http://www.w3.org/2000/svg" viewBox="0 0 24 24" id="moon-waning-crescent">
    <path d="M2 12A10 10 0 0 0 15 21.54A10 10 0 0 1 15 2.46A10 10 0 0 0 2 12Z"></path>
  </symbol>
  <symbol xmlns="http://www.w3.org/2000/svg" viewBox="0 0 24 24" id="white-balance-sunny">
    <path d="M3.55 19.09L4.96 20.5L6.76 18.71L5.34 17.29M12 6C8.69 6 6 8.69 6 12S8.69 18 12 18 18 15.31 18 12C18 8.68 15.31 6 12 6M20 13H23V11H20M17.24 18.71L19.04 20.5L20.45 19.09L18.66 17.29M20.45 5L19.04 3.6L17.24 5.39L18.66 6.81M13 1H11V4H13M6.76 5.39L4.96 3.6L3.55 5L5.34 6.81L6.76 5.39M1 13H4V11H1M13 20H11V23H13"></path>
  </symbol>
  <symbol xmlns="http://www.w3.org/2000/svg" viewBox="0 0 24 24" id="menu">
    <path d="M3,6H21V8H3V6M3,11H21V13H3V11M3,16H21V18H3V16Z"></path>
  </symbol>
  <symbol xmlns="http://www.w3.org/2000/svg" viewBox="0 0 24 24" id="email">
    <path d="M20,8L12,13L4,8V6L12,11L20,6M20,4H4C2.89,4 2,4.89 2,6V18A2,2 0 0,0 4,20H20A2,2 0 0,0 22,18V6C22,4.89 21.1,4 20,4Z"></path>
  </symbol>
  <symbol xmlns="http://www.w3.org/2000/svg" viewBox="0 0 24 24" id="lock">
    <path d="M12,17A2,2 0 0,0 14,15C14,13.89 13.1,13 12,13A2,2 0 0,0 10,15A2,2 0 0,0 12,17M18,8A2,2 0 0,1 20,10V20A2,2 0 0,1 18,22H6A2,2 0 0,1 4,20V10C4,8.89 4.9,8 6,8H7V6A5,5 0 0,1 12,1A5,5 0 0,1 17,6V8H18M12,3A3,3 0 0,0 9,6V8H15V6A3,3 0 0,0 12,3Z"></path>
  </symbol>
  <symbol  xmlns="http://www.w3.org/2000/svg" viewBox="0 0 36 42" id="books">
    <path d="M18 19.1C13.28 14.7 6.96 12 0 12V34C6.96 34 13.28 36.7 18 41.1C22.72 36.72 29.04 34 36 34V12C29.04 12 22.72 14.7 18 19.1ZM18 12C21.32 12 24 9.32 24 6C24 2.68 21.32 0 18 0C14.68 0 12 2.68 12 6C12 9.32 14.68 12 18 12Z"></path>
  </symbol>
  <symbol  xmlns="http://www.w3.org/2000/svg" viewBox="0 0 44 32" id="dictionary">
    <path d="M6 20.45H8.25L9.4 17.15H14.6L15.8 20.45H18L13.15 7.55H10.85L6 20.45ZM10.05 15.3L11.95 9.95H12.05L13.95 15.3H10.05ZM26 11.8V8.4C27.1 7.93333 28.225 7.58333 29.375 7.35C30.525 7.11667 31.7333 7 33 7C33.8667 7 34.7167 7.06667 35.55 7.2C36.3833 7.33333 37.2 7.5 38 7.7V10.9C37.2 10.6 36.3917 10.375 35.575 10.225C34.7583 10.075 33.9 10 33 10C31.7333 10 30.5167 10.1583 29.35 10.475C28.1833 10.7917 27.0667 11.2333 26 11.8ZM26 22.8V19.4C27.1 18.9333 28.225 18.5833 29.375 18.35C30.525 18.1167 31.7333 18 33 18C33.8667 18 34.7167 18.0667 35.55 18.2C36.3833 18.3333 37.2 18.5 38 18.7V21.9C37.2 21.6 36.3917 21.375 35.575 21.225C34.7583 21.075 33.9 21 33 21C31.7333 21 30.5167 21.15 29.35 21.45C28.1833 21.75 27.0667 22.2 26 22.8ZM26 17.3V13.9C27.1 13.4333 28.225 13.0833 29.375 12.85C30.525 12.6167 31.7333 12.5 33 12.5C33.8667 12.5 34.7167 12.5667 35.55 12.7C36.3833 12.8333 37.2 13 38 13.2V16.4C37.2 16.1 36.3917 15.875 35.575 15.725C34.7583 15.575 33.9 15.5 33 15.5C31.7333 15.5 30.5167 15.6583 29.35 15.975C28.1833 16.2917 27.0667 16.7333 26 17.3ZM11 24C12.5667 24 14.0917 24.175 15.575 24.525C17.0583 24.875 18.5333 25.4 20 26.1V6.4C18.6333 5.6 17.1833 5 15.65 4.6C14.1167 4.2 12.5667 4 11 4C9.8 4 8.60833 4.11667 7.425 4.35C6.24167 4.58333 5.1 4.93333 4 5.4V25.2C5.16667 24.8 6.325 24.5 7.475 24.3C8.625 24.1 9.8 24 11 24ZM24 26.1C25.4667 25.4 26.9417 24.875 28.425 24.525C29.9083 24.175 31.4333 24 33 24C34.2 24 35.375 24.1 36.525 24.3C37.675 24.5 38.8333 24.8 40 25.2V5.4C38.9 4.93333 37.7583 4.58333 36.575 4.35C35.3917 4.11667 34.2 4 33 4C31.4333 4 29.8833 4.2 28.35 4.6C26.8167 5 25.3667 5.6 24 6.4V26.1ZM22 32C20.4 30.7333 18.6667 29.75 16.8 29.05C14.9333 28.35 13 28 11 28C9.6 28 8.225 28.1833 6.875 28.55C5.525 28.9167 4.23333 29.4333 3 30.1C2.3 30.4667 1.625 30.45 0.975 30.05C0.325 29.65 0 29.0667 0 28.3V4.2C0 3.83333 0.0916667 3.48333 0.275 3.15C0.458333 2.81667 0.733333 2.56667 1.1 2.4C2.63333 1.6 4.23333 1 5.9 0.6C7.56667 0.2 9.26667 0 11 0C12.9333 0 14.825 0.25 16.675 0.75C18.525 1.25 20.3 2 22 3C23.7 2 25.475 1.25 27.325 0.75C29.175 0.25 31.0667 0 33 0C34.7333 0 36.4333 0.2 38.1 0.6C39.7667 1 41.3667 1.6 42.9 2.4C43.2667 2.56667 43.5417 2.81667 43.725 3.15C43.9083 3.48333 44 3.83333 44 4.2V28.3C44 29.0667 43.675 29.65 43.025 30.05C42.375 30.45 41.7 30.4667 41 30.1C39.7667 29.4333 38.475 28.9167 37.125 28.55C35.775 28.1833 34.4 28 33 28C31 28 29.0667 28.35 27.2 29.05C25.3333 29.75 23.6 30.7333 22 32ZM11 24C9.8 24 8.625 24.1 7.475 24.3C6.325 24.5 5.16667 24.8 4 25.2V5.4C5.1 4.93333 6.24167 4.58333 7.425 4.35C8.60833 4.11667 9.8 4 11 4C12.5667 4 14.1167 4.2 15.65 4.6C17.1833 5 18.6333 5.6 20 6.4V26.1C18.5333 25.4 17.0583 24.875 15.575 24.525C14.0917 24.175 12.5667 24 11 24Z" ></path>
  </symbol>
  <symbol  xmlns="http://www.w3.org/2000/svg" viewBox="0 0 21 20" id="eye">
    <g clip-path="url(#clip0_66_3197)">
      <path d="M15.4502 14.95C14.0257 16.0358 12.2911 16.6374 10.5002 16.6667C4.66683 16.6667 1.3335 10 1.3335 10C2.37007 8.06826 3.80778 6.38052 5.55016 5.05001M8.75016 3.53334C9.32377 3.39908 9.91105 3.33196 10.5002 3.33334C16.3335 3.33334 19.6668 10 19.6668 10C19.161 10.9464 18.5577 11.8373 17.8668 12.6583M12.2668 11.7667C12.038 12.0123 11.762 12.2093 11.4553 12.3459C11.1486 12.4826 10.8176 12.5561 10.4819 12.562C10.1462 12.5679 9.8128 12.5062 9.5015 12.3804C9.19021 12.2547 8.90743 12.0675 8.67004 11.8301C8.43264 11.5927 8.24549 11.31 8.11975 10.9987C7.99402 10.6874 7.93227 10.3539 7.93819 10.0183C7.94411 9.68259 8.01759 9.35155 8.15423 9.04488C8.29087 8.73822 8.48787 8.46222 8.7335 8.23334M1.3335 0.833344L19.6668 19.1667" stroke="#46754B" stroke-width="2" stroke-linecap="round" stroke-linejoin="round"></path>
    </g>
    <defs>
      <clipPath id="clip0_66_3197">
        <rect width="20" height="20" fill="white" transform="translate(0.5)"></rect>
      </clipPath>
    </defs>
  </symbol>
  <symbol xmlns="http://www.w3.org/2000/svg" viewBox="0 0 91 58" id="logo">
    <path d="M45.5 52.4384C52.2655 52.4384 57.75 41.9447 57.75 29C57.75 16.0554 52.2655 5.56171 45.5 5.56171C38.7345 5.56171 33.25 16.0554 33.25 29C33.25 41.9447 38.7345 52.4384 45.5 52.4384Z"></path>
    <path d="M27.1252 29C27.1252 25.0392 28.0643 12.0134 39.4977 2.45835C36.3127 1.19252 32.8418 0.416687 29.1668 0.416687C13.4052 0.416687 0.583496 13.2384 0.583496 29C0.583496 44.7617 13.4052 57.5834 29.1668 57.5834C32.8418 57.5834 36.3127 56.8075 39.4977 55.5417C28.0643 45.9867 27.1252 32.9609 27.1252 29Z"></path>
    <path d="M61.8333 0.416687C58.1583 0.416687 54.6874 1.19252 51.5024 2.45835C62.9358 12.0134 63.8749 25.0392 63.8749 29C63.8749 32.9609 62.9358 45.9867 51.5024 55.5417C54.6874 56.8075 58.1583 57.5834 61.8333 57.5834C77.5949 57.5834 90.4166 44.7617 90.4166 29C90.4166 13.2384 77.5949 0.416687 61.8333 0.416687Z"></path>
  </symbol>
  <symbol xmlns="http://www.w3.org/2000/svg" viewBox="0 0 28 20" id="ukraine">
    <path fill-rule="evenodd" clip-rule="evenodd" d="M0.5 0H27.1667V20H0.5V0Z" fill="#FFD700"></path>
    <path fill-rule="evenodd" clip-rule="evenodd" d="M0.5 0H27.1667V10H0.5V0Z" fill="#0057B8"></path>
  </symbol>
  <symbol xmlns="http://www.w3.org/2000/svg" viewBox="0 0 30 30" id="add">
    <path d="M18 18C18.425 18 18.7815 17.856 19.0695 17.568C19.3565 17.281 19.5 16.925 19.5 16.5V13.5H22.5C22.925 13.5 23.281 13.356 23.568 13.068C23.856 12.781 24 12.425 24 12C24 11.575 23.856 11.2185 23.568 10.9305C23.281 10.6435 22.925 10.5 22.5 10.5H19.5V7.5C19.5 7.075 19.3565 6.7185 19.0695 6.4305C18.7815 6.1435 18.425 6 18 6C17.575 6 17.219 6.1435 16.932 6.4305C16.644 6.7185 16.5 7.075 16.5 7.5V10.5H13.5C13.075 10.5 12.719 10.6435 12.432 10.9305C12.144 11.2185 12 11.575 12 12C12 12.425 12.144 12.781 12.432 13.068C12.719 13.356 13.075 13.5 13.5 13.5H16.5V16.5C16.5 16.925 16.644 17.281 16.932 17.568C17.219 17.856 17.575 18 18 18ZM9 24C8.175 24 7.469 23.7065 6.882 23.1195C6.294 22.5315 6 21.825 6 21V3C6 2.175 6.294 1.4685 6.882 0.8805C7.469 0.2935 8.175 0 9 0H27C27.825 0 28.5315 0.2935 29.1195 0.8805C29.7065 1.4685 30 2.175 30 3V21C30 21.825 29.7065 22.5315 29.1195 23.1195C28.5315 23.7065 27.825 24 27 24H9ZM3 30C2.175 30 1.469 29.7065 0.882 29.1195C0.294 28.5315 0 27.825 0 27V7.5C0 7.075 0.144 6.7185 0.432 6.4305C0.719 6.1435 1.075 6 1.5 6C1.925 6 2.2815 6.1435 2.5695 6.4305C2.8565 6.7185 3 7.075 3 7.5V27H22.5C22.925 27 23.281 27.144 23.568 27.432C23.856 27.719 24 28.075 24 28.5C24 28.925 23.856 29.281 23.568 29.568C23.281 29.856 22.925 30 22.5 30H3Z"></path>
  </symbol>
  <symbol xmlns="http://www.w3.org/2000/svg" viewBox="0 0 48 48" id="exit">
    <path d="M29.5512 31.7134C29.1339 31.2203 28.9253 30.6604 28.9253 30.0337C28.9253 29.4086 29.1339 28.8874 29.5512 28.4701L33.7617 24.2596H17.4317C16.7869 24.2596 16.2467 24.0411 15.8112 23.6041C15.3743 23.1687 15.1558 22.6285 15.1558 21.9836C15.1558 21.3388 15.3743 20.7979 15.8112 20.3609C16.2467 19.9254 16.7869 19.7077 17.4317 19.7077H33.7617L29.5512 15.4972C29.096 15.042 28.8684 14.5018 28.8684 13.8767C28.8684 13.25 29.096 12.7091 29.5512 12.2539C29.9685 11.7987 30.4904 11.5711 31.1171 11.5711C31.7422 11.5711 32.2634 11.7798 32.6807 12.197L40.8741 20.3905C41.1017 20.6181 41.2633 20.8646 41.3589 21.1302C41.453 21.3957 41.5 21.6802 41.5 21.9836C41.5 22.2871 41.453 22.5716 41.3589 22.8371C41.2633 23.1027 41.1017 23.3492 40.8741 23.5768L32.6807 31.7703C32.1875 32.2634 31.6474 32.4811 31.0602 32.4235C30.4715 32.3673 29.9685 32.1306 29.5512 31.7134ZM6.05192 42.4673C4.80014 42.4673 3.72816 42.022 2.83599 41.1313C1.94533 40.2391 1.5 39.1671 1.5 37.9154V6.05192C1.5 4.80014 1.94533 3.72817 2.83599 2.83599C3.72816 1.94533 4.80014 1.5 6.05192 1.5H19.7077C20.3525 1.5 20.8935 1.71773 21.3304 2.1532C21.7659 2.59019 21.9836 3.13111 21.9836 3.77596C21.9836 4.42082 21.7659 4.96098 21.3304 5.39644C20.8935 5.83343 20.3525 6.05192 19.7077 6.05192H6.05192V37.9154H19.7077C20.3525 37.9154 20.8935 38.1339 21.3304 38.5708C21.7659 39.0063 21.9836 39.5465 21.9836 40.1913C21.9836 40.8362 21.7659 41.3763 21.3304 41.8118C20.8935 42.2488 20.3525 42.4673 19.7077 42.4673H6.05192Z"></path>
  </symbol>
  <symbol xmlns="http://www.w3.org/2000/svg" viewBox="0 0 30 31" id="filter">
    <path d="M1.7282 2.02148H28.2718L18.0243 12.269C17.743 12.5503 17.585 12.9318 17.585 13.3296V28.7716L12.415 23.6016V13.3296C12.415 12.9318 12.257 12.5503 11.9757 12.269L1.7282 2.02148Z" stroke="#46754B" stroke-width="3" stroke-linejoin="round"></path>
  </symbol>
  <symbol xmlns="http://www.w3.org/2000/svg" viewBox="0 0 38 40" id="gear">
    <path d="M33.28 21.8798C33.36 21.2798 33.4 20.6598 33.4 19.9998C33.4 19.3598 33.36 18.7198 33.26 18.1198L37.32 14.9598C37.68 14.6798 37.78 14.1398 37.56 13.7398L33.72 7.0998C33.48 6.6598 32.98 6.5198 32.54 6.6598L27.76 8.5798C26.76 7.8198 25.7 7.1798 24.52 6.6998L23.8 1.6198C23.72 1.1398 23.32 0.799805 22.84 0.799805H15.16C14.68 0.799805 14.3 1.1398 14.22 1.6198L13.5 6.6998C12.32 7.1798 11.24 7.8398 10.26 8.5798L5.47997 6.6598C5.03997 6.4998 4.53997 6.6598 4.29997 7.0998L0.479975 13.7398C0.239975 14.1598 0.319975 14.6798 0.719975 14.9598L4.77997 18.1198C4.67997 18.7198 4.59998 19.3798 4.59998 19.9998C4.59998 20.6198 4.63997 21.2798 4.73997 21.8798L0.679975 25.0398C0.319975 25.3198 0.219975 25.8598 0.439975 26.2598L4.27997 32.8998C4.51997 33.3398 5.01997 33.4798 5.45997 33.3398L10.24 31.4198C11.24 32.1798 12.3 32.8198 13.48 33.2998L14.2 38.3798C14.3 38.8598 14.68 39.1998 15.16 39.1998H22.84C23.32 39.1998 23.72 38.8598 23.78 38.3798L24.5 33.2998C25.68 32.8198 26.76 32.1798 27.74 31.4198L32.52 33.3398C32.96 33.4998 33.46 33.3398 33.7 32.8998L37.54 26.2598C37.78 25.8198 37.68 25.3198 37.3 25.0398L33.28 21.8798ZM19 27.1998C15.04 27.1998 11.8 23.9598 11.8 19.9998C11.8 16.0398 15.04 12.7998 19 12.7998C22.96 12.7998 26.2 16.0398 26.2 19.9998C26.2 23.9598 22.96 27.1998 19 27.1998Z" ></path>
  </symbol>
  <symbol xmlns="http://www.w3.org/2000/svg" viewBox="0 0 28 29" id="search">
    <path d="M20.0114 18.1101H18.7467L18.2985 17.6778C19.8674 15.8528 20.8119 13.4834 20.8119 10.9059C20.8119 5.15866 16.1532 0.5 10.4059 0.5C4.65866 0.5 0 5.15866 0 10.9059C0 16.6532 4.65866 21.3119 10.4059 21.3119C12.9834 21.3119 15.3528 20.3674 17.1778 18.7985L17.6101 19.2467V20.5114L25.6146 28.5L28 26.1146L20.0114 18.1101ZM10.4059 18.1101C6.41967 18.1101 3.20183 14.8922 3.20183 10.9059C3.20183 6.91967 6.41967 3.70183 10.4059 3.70183C14.3922 3.70183 17.6101 6.91967 17.6101 10.9059C17.6101 14.8922 14.3922 18.1101 10.4059 18.1101Z"></path>
  </symbol>
  <symbol xmlns="http://www.w3.org/2000/svg" viewBox="0 0 30 31" id="profile">
    <path d="M15 15.5C19.1437 15.5 22.5 12.1438 22.5 8C22.5 3.85625 19.1437 0.5 15 0.5C10.8562 0.5 7.5 3.85625 7.5 8C7.5 12.1438 10.8562 15.5 15 15.5ZM15 19.25C9.99375 19.25 0 21.7625 0 26.75V30.5H30V26.75C30 21.7625 20.0063 19.25 15 19.25Z"></path>
  </symbol>
  <symbol xmlns="http://www.w3.org/2000/svg" viewBox="0 0 92 84" id="add-photo">
    <path d="M12 12V0H20V12H32V20H20V32H12V20H0V12H12ZM24 36V24H36V12H64L71.32 20H84C88.4 20 92 23.6 92 28V76C92 80.4 88.4 84 84 84H20C15.6 84 12 80.4 12 76V36H24ZM52 72C63.04 72 72 63.04 72 52C72 40.96 63.04 32 52 32C40.96 32 32 40.96 32 52C32 63.04 40.96 72 52 72ZM39.2 52C39.2 59.08 44.92 64.8 52 64.8C59.08 64.8 64.8 59.08 64.8 52C64.8 44.92 59.08 39.2 52 39.2C44.92 39.2 39.2 44.92 39.2 52Z"></path>
  </symbol>
  <symbol xmlns="http://www.w3.org/2000/svg" viewBox="0 0 24 31" id="busket">
    <path d="M1.99992 27.1667C1.99992 29 3.49992 30.5 5.33325 30.5H18.6666C20.4999 30.5 21.9999 29 21.9999 27.1667V7.16667H1.99992V27.1667ZM23.6666 2.16667H17.8333L16.1666 0.5H7.83325L6.16659 2.16667H0.333252V5.5H23.6666V2.16667Z"></path>
  </symbol>
  <symbol xmlns="http://www.w3.org/2000/svg" viewBox="0 0 34 29" id="sound">
    <path d="M12.8494 3.66311L7.63633 8.87503H1.65625C0.879297 8.87503 0.25 9.50432 0.25 10.2813V18.7188C0.25 19.4951 0.879297 20.125 1.65625 20.125H7.63633L12.8494 25.3369C13.7301 26.2176 15.25 25.5989 15.25 24.3426V4.65745C15.25 3.40003 13.7289 2.78362 12.8494 3.66311ZM26.5205 0.670145C25.866 0.240652 24.9865 0.421707 24.557 1.07737C24.127 1.73186 24.3098 2.61136 24.9643 3.04085C28.8473 5.58909 31.1646 9.87288 31.1646 14.5006C31.1646 19.1283 28.8473 23.4121 24.9643 25.9604C24.3098 26.3893 24.127 27.2694 24.557 27.9233C24.9695 28.5508 25.842 28.7764 26.5205 28.3305C31.2033 25.2567 34 20.0858 34 14.5C34 8.91428 31.2033 3.74397 26.5205 0.670145ZM28.375 14.5C28.375 10.7776 26.4965 7.3551 23.3494 5.34534C22.6938 4.92698 21.8242 5.12151 21.4088 5.78245C20.9934 6.44339 21.1873 7.31819 21.843 7.73714C24.1721 9.22483 25.5625 11.7526 25.5625 14.5C25.5625 17.2475 24.1721 19.7752 21.843 21.2629C21.1873 21.6813 20.9934 22.5561 21.4088 23.2176C21.7902 23.8246 22.6463 24.1047 23.3494 23.6547C26.4965 21.6449 28.375 18.2231 28.375 14.5ZM20.0682 9.99593C19.3896 9.62503 18.5336 9.86936 18.1574 10.5496C17.783 11.2299 18.0309 12.0848 18.7111 12.4604C19.4676 12.8758 19.9375 13.658 19.9375 14.5C19.9375 15.3426 19.4676 16.1242 18.7117 16.5397C18.0314 16.9153 17.7836 17.7701 18.158 18.4504C18.5348 19.1336 19.3914 19.3762 20.0687 19.0041C21.7229 18.093 22.7506 16.3674 22.7506 14.4994C22.7506 12.6315 21.7229 10.9065 20.0682 9.99593Z"></path>
  </symbol>
  <symbol xmlns="http://www.w3.org/2000/svg" viewBox="0 0 24 24" id="filter-outline">
    <path d="M15,19.88C15.04,20.18 14.94,20.5 14.71,20.71C14.32,21.1 13.69,21.1 13.3,20.71L9.29,16.7C9.06,16.47 8.96,16.16 9,15.87V10.75L4.21,4.62C3.87,4.19 3.95,3.56 4.38,3.22C4.57,3.08 4.78,3 5,3V3H19V3C19.22,3 19.43,3.08 19.62,3.22C20.05,3.56 20.13,4.19 19.79,4.62L15,10.75V19.88M7.04,5L11,10.06V15.58L13,17.58V10.05L16.96,5H7.04Z"></path>
  </symbol>
</svg>
