<svg width="0" height="0" class="hidden">
  <symbol  xmlns="http://www.w3.org/2000/svg" viewBox="0 0 48 48" id="discord">
    <path d="M40.634 8.31127C37.5747 6.90751 34.294 5.87327 30.8638 5.28093C30.8013 5.2695 30.7389 5.29806 30.7067 5.3552C30.2848 6.10563 29.8175 7.08463 29.4902 7.85412C25.8008 7.30178 22.1304 7.30178 18.5166 7.85412C18.1893 7.06753 17.705 6.10563 17.2811 5.3552C17.249 5.29997 17.1866 5.2714 17.1241 5.28093C13.6958 5.87138 10.4151 6.90561 7.35387 8.31127C7.32737 8.32269 7.30465 8.34176 7.28958 8.3665C1.06678 17.6632 -0.6379 26.7314 0.19836 35.6872C0.202144 35.731 0.22674 35.7729 0.260796 35.7996C4.36642 38.8147 8.34341 40.6451 12.2466 41.8583C12.309 41.8774 12.3752 41.8546 12.415 41.8031C13.3383 40.5423 14.1613 39.2128 14.867 37.8147C14.9086 37.7328 14.8688 37.6357 14.7837 37.6033C13.4783 37.1081 12.2352 36.5043 11.0395 35.8187C10.9449 35.7634 10.9373 35.6281 11.0243 35.5634C11.2759 35.3748 11.5276 35.1786 11.7679 34.9805C11.8114 34.9444 11.872 34.9367 11.9231 34.9596C19.7786 38.5461 28.2831 38.5461 36.0459 34.9596C36.097 34.9348 36.1576 34.9425 36.203 34.9787C36.4433 35.1767 36.6949 35.3748 36.9484 35.5634C37.0354 35.6281 37.0298 35.7634 36.9352 35.8187C35.7394 36.5176 34.4964 37.1081 33.189 37.6014C33.1039 37.6338 33.0661 37.7328 33.1077 37.8147C33.8285 39.2108 34.6515 40.5403 35.5578 41.8012C35.5956 41.8546 35.6637 41.8774 35.7262 41.8583C39.6483 40.6451 43.6252 38.8147 47.7309 35.7996C47.7668 35.7729 47.7895 35.7329 47.7933 35.6891C48.7942 25.3352 46.117 16.3414 40.6964 8.3684C40.6832 8.34176 40.6605 8.32269 40.634 8.31127ZM16.04 30.2341C13.675 30.2341 11.7263 28.0628 11.7263 25.3962C11.7263 22.7297 13.6372 20.5584 16.04 20.5584C18.4617 20.5584 20.3916 22.7487 20.3538 25.3962C20.3538 28.0628 18.4428 30.2341 16.04 30.2341ZM31.9895 30.2341C29.6245 30.2341 27.6758 28.0628 27.6758 25.3962C27.6758 22.7297 29.5867 20.5584 31.9895 20.5584C34.4113 20.5584 36.3411 22.7487 36.3033 25.3962C36.3033 28.0628 34.4113 30.2341 31.9895 30.2341Z" ></path>
  </symbol>
  <symbol  xmlns="http://www.w3.org/2000/svg" viewBox="0 0 48 48" id="facebook">
    <g clip-path="url(#clip0_17_61)">
      <path d="M24 0C10.7453 0 0 10.7848 0 24.0882C0 35.3845 7.74912 44.8637 18.2026 47.4672V31.4495H13.2538V24.0882H18.2026V20.9162C18.2026 12.7176 21.8995 8.91744 29.9194 8.91744C31.44 8.91744 34.0637 9.21709 35.137 9.51579V16.1882C34.5706 16.1285 33.5866 16.0986 32.3645 16.0986C28.4294 16.0986 26.9088 17.595 26.9088 21.4847V24.0882H34.7482L33.4013 31.4495H26.9088V48C38.7926 46.5595 48.001 36.404 48.001 24.0882C48 10.7848 37.2547 0 24 0Z" ></path>
    </g>
    <defs>
      <clipPath id="clip0_17_61">
        <rect width="48" height="48" ></rect>
      </clipPath>
    </defs>
  </symbol>
  <symbol  xmlns="http://www.w3.org/2000/svg" viewBox="0 0 48 48" id="github">
    <g clip-path="url(#clip0_910_44)">
      <path fill-rule="evenodd" clip-rule="evenodd" d="M24.0199 0C10.7375 0 0 10.8167 0 24.1983C0 34.895 6.87988 43.9495 16.4241 47.1542C17.6174 47.3951 18.0545 46.6335 18.0545 45.9929C18.0545 45.4319 18.0151 43.509 18.0151 41.5055C11.3334 42.948 9.94198 38.6209 9.94198 38.6209C8.86818 35.8164 7.27715 35.0956 7.27715 35.0956C5.09022 33.6132 7.43645 33.6132 7.43645 33.6132C9.86233 33.7735 11.1353 36.0971 11.1353 36.0971C13.2824 39.7827 16.7422 38.7413 18.1341 38.1002C18.3328 36.5377 18.9695 35.456 19.6455 34.8552C14.3163 34.2942 8.70937 32.211 8.70937 22.9161C8.70937 20.2719 9.66321 18.1086 11.1746 16.4261C10.9361 15.8253 10.1008 13.3409 11.4135 10.0157C11.4135 10.0157 13.4417 9.3746 18.0146 12.4996C19.9725 11.9699 21.9916 11.7005 24.0199 11.6982C26.048 11.6982 28.1154 11.979 30.0246 12.4996C34.5981 9.3746 36.6262 10.0157 36.6262 10.0157C37.9389 13.3409 37.1031 15.8253 36.8646 16.4261C38.4158 18.1086 39.3303 20.2719 39.3303 22.9161C39.3303 32.211 33.7234 34.2539 28.3544 34.8552C29.2296 35.6163 29.9848 37.0583 29.9848 39.3421C29.9848 42.5871 29.9454 45.1915 29.9454 45.9924C29.9454 46.6335 30.383 47.3951 31.5758 47.1547C41.12 43.9491 47.9999 34.895 47.9999 24.1983C48.0392 10.8167 37.2624 0 24.0199 0Z" ></path>
    </g>
    <defs>
      <clipPath id="clip0_910_44">
        <rect width="48" height="48" ></rect>
      </clipPath>
    </defs>
  </symbol>
  <symbol  xmlns="http://www.w3.org/2000/svg" viewBox="0 0 48 48" id="twitter">
    <path d="M36.6526 3.8078H43.3995L28.6594 20.6548L46 43.5797H32.4225L21.7881 29.6759L9.61989 43.5797H2.86886L18.6349 25.56L2 3.8078H15.9222L25.5348 16.5165L36.6526 3.8078ZM34.2846 39.5414H38.0232L13.8908 7.63406H9.87892L34.2846 39.5414Z" ></path>
  </symbol>
</svg>